# xmcd CD database file
#
# Track frame offsets:
#	150
#	21545
#	50666
#	72718
#	99345
#	133597
#	151930
#	170070
#	187975
#	214893
#
# Disc length: 3479 seconds
#
# Revision: 0
# Processed by: cddbd v1.5.2PL0 Copyright (c) Steve Scherf et al.
# Submitted via: CDex 1.51
#
DISCID=940d950a
DTITLE=Introversion - In the Garden of Asmodeus
DYEAR=2000
DGENRE=New Age
TTITLE0=Le Mystere
TTITLE1=Divine Right
TTITLE2=Sorcerors Curse
TTITLE3=Komische Occulten
TTITLE4=Rosslyn Chapel
TTITLE5=Kaleidoscopic
TTITLE6=High Lands
TTITLE7=Moonlit Ruins
TTITLE8=Arcadia
TTITLE9=Golden Age
EXTD=YEAR: 2000
EXTT0=
EXTT1=
EXTT2=
EXTT3=
EXTT4=
EXTT5=
EXTT6=
EXTT7=
EXTT8=
EXTT9=
PLAYORDER=
